<svg width="62" height="62" viewBox="0 0 62 62" fill="none" xmlns="http://www.w3.org/2000/svg">
<path d="M31.4997 43.3997V42.8997H30.4997V43.3997H31.4997ZM30.4997 43.4411V43.9411H31.4997V43.4411H30.4997ZM30.4997 16.5331V40.4347H31.4997V16.5331H30.4997ZM30.4997 43.3997V43.4411H31.4997V43.3997H30.4997ZM30.9997 59.4331C15.2964 59.4331 2.56641 46.703 2.56641 30.9997H1.56641C1.56641 47.2553 14.7442 60.4331 30.9997 60.4331V59.4331ZM59.4331 30.9997C59.4331 46.703 46.703 59.4331 30.9997 59.4331V60.4331C47.2553 60.4331 60.4331 47.2553 60.4331 30.9997H59.4331ZM30.9997 2.56641C46.703 2.56641 59.4331 15.2964 59.4331 30.9997H60.4331C60.4331 14.7442 47.2553 1.56641 30.9997 1.56641V2.56641ZM30.9997 1.56641C14.7442 1.56641 1.56641 14.7442 1.56641 30.9997H2.56641C2.56641 15.2964 15.2964 2.56641 30.9997 2.56641V1.56641Z" fill="black"/>
</svg>
